<?xml version="1.0" standalone="no"?>
<!DOCTYPE svg PUBLIC "-//W3C//DTD SVG 20010904//EN"
 "http://www.w3.org/TR/2001/REC-SVG-20010904/DTD/svg10.dtd">
<svg version="1.0" xmlns="http://www.w3.org/2000/svg"
 width="260.000000pt" height="260.000000pt" viewBox="0 0 260.000000 260.000000"
 preserveAspectRatio="xMidYMid meet">
<metadata>
Created by potrace 1.11, written by Peter Selinger 2001-2013
</metadata>
<g transform="translate(0.000000,260.000000) scale(0.100000,-0.100000)"
fill="#000000" stroke="none">
<path d="M2071 2554 c-12 -15 -21 -36 -21 -46 0 -11 -8 -32 -19 -46 -10 -15
-37 -65 -61 -112 -44 -87 -87 -143 -101 -134 -5 3 -14 -4 -21 -16 -7 -11 -20
-20 -29 -20 -9 0 -39 -23 -67 -51 -54 -54 -63 -55 -98 -10 -9 11 -18 9 -52
-13 -45 -28 -49 -38 -28 -77 7 -14 16 -37 19 -51 4 -15 21 -40 37 -57 l30 -30
-25 -25 c-16 -16 -23 -31 -18 -39 10 -16 4 -47 -13 -71 -17 -24 -18 -40 -3
-30 6 3 3 -8 -6 -26 -9 -17 -22 -29 -28 -26 -80 35 -135 56 -150 56 -31 0 -71
27 -127 85 -104 107 -288 210 -412 230 -70 11 -94 18 -108 29 -13 10 -13 9 0
-8 14 -18 13 -19 -20 -13 -19 3 -29 3 -22 0 25 -10 11 -21 -35 -27 -27 -4 -90
-20 -140 -37 -89 -28 -94 -29 -130 -14 -21 9 -59 39 -84 67 -39 41 -56 52 -96
59 -26 5 -54 17 -61 27 -12 15 -13 15 -10 -8 3 -21 -1 -25 -21 -22 -23 2 -23
1 -8 -16 15 -17 15 -19 -1 -36 -9 -11 -12 -16 -5 -12 9 5 11 -4 8 -34 -6 -59
10 -85 69 -113 77 -37 118 -86 122 -142 2 -26 12 -79 23 -118 29 -103 14 -193
-46 -280 -28 -40 -87 -77 -123 -77 -12 0 -19 -4 -15 -10 3 -5 -7 -16 -22 -24
l-28 -15 27 -1 c19 0 26 -5 24 -17 -2 -10 6 -47 16 -83 23 -77 24 -126 3 -166
-8 -16 -15 -44 -15 -62 0 -18 -5 -41 -12 -52 -10 -16 -9 -23 10 -43 20 -21 20
-24 6 -39 -9 -9 -16 -35 -17 -65 -2 -90 66 -161 113 -118 32 29 49 110 45 215
-2 70 2 113 16 165 11 39 21 78 24 87 9 40 32 74 64 95 19 13 37 21 40 18 3
-4 1 -9 -4 -13 -36 -26 -85 -95 -84 -120 0 -24 1 -25 9 -7 7 15 8 11 8 -20 -1
-22 8 -58 19 -80 11 -22 35 -75 53 -118 27 -66 31 -84 25 -126 -6 -46 -5 -51
19 -66 19 -13 23 -21 17 -34 -9 -18 -5 -71 10 -117 15 -49 54 -79 96 -75 19 2
43 97 37 148 -3 25 -14 86 -25 136 -27 129 -25 210 6 274 27 54 82 94 97 70 4
-7 8 -7 8 -2 0 6 5 3 10 -5 8 -12 10 -12 10 -1 0 9 8 12 26 8 18 -3 24 -1 20
8 -4 12 139 165 155 165 4 0 9 -7 13 -15 3 -8 13 -15 23 -16 12 -1 10 -3 -7
-9 l-25 -8 25 -2 c55 -4 109 -20 67 -20 -9 0 -17 -5 -17 -11 0 -5 4 -7 10 -4
5 3 45 -12 88 -35 43 -22 83 -40 89 -40 18 0 117 -33 128 -42 5 -5 19 -52 31
-106 l22 -96 -20 -75 c-11 -41 -22 -80 -26 -85 -11 -19 -9 -47 3 -42 32 12
126 -148 174 -294 22 -67 60 -131 97 -165 12 -11 27 -36 33 -56 14 -42 29 -49
114 -49 57 0 57 0 57 30 0 34 -49 130 -88 172 -27 30 -28 42 -22 238 1 56 -2
107 -9 124 -19 47 -15 108 9 162 13 30 25 85 31 142 9 97 24 136 87 236 17 27
39 72 48 100 9 28 30 68 46 90 15 21 28 45 28 52 0 6 17 45 38 86 21 40 44 89
52 108 32 83 40 87 142 89 157 4 236 17 239 42 3 19 5 24 11 35 12 19 2 99
-15 124 -9 13 -25 29 -36 35 -10 5 -41 30 -68 55 -36 33 -52 56 -57 82 -3 20
-16 48 -28 63 -11 15 -27 43 -33 64 -7 20 -23 41 -36 48 -13 7 -27 21 -31 32
-4 12 -16 21 -28 21 -14 0 -19 4 -14 12 5 8 2 9 -11 4 -17 -6 -18 -1 -12 66 4
40 9 84 12 98 8 36 8 115 0 139 -8 28 -19 26 -44 -5z"/>
</g>
</svg>
